<svg xmlns="http://www.w3.org/2000/svg" fill="none" viewBox="0 0 128 128"><g id="snowman__snowman" clip-path="url(#snowman__clip0_2045_50276)"><g id="snowman__Snowman"><circle id="snowman__Body" cx="64" cy="76" r="20.5" fill="url(#snowman__paint0_linear_2045_50276)" stroke="#e6effc" stroke-miterlimit="10"/><g id="snowman__Buttons"><circle id="snowman__Top Button" cx="64" cy="69" r="2" fill="#364d6e"/><circle id="snowman__Middle Button" cx="64" cy="75" r="2" fill="#364d6e"/><circle id="snowman__Bottom Button" cx="64" cy="81" r="2" fill="#364d6e"/></g><g id="snowman__Arms"><circle id="snowman__Right Arm" cx="83.5" cy="68.5" r="4" fill="url(#snowman__paint1_linear_2045_50276)" stroke="#e6effc" stroke-miterlimit="10"/><circle id="snowman__Left Arm" cx="44.5" cy="68.5" r="4" fill="url(#snowman__paint2_linear_2045_50276)" stroke="#e6effc" stroke-miterlimit="10"/></g><circle id="snowman__Head" cx="64" cy="46" r="14.5" fill="url(#snowman__paint3_linear_2045_50276)" stroke="#e6effc" stroke-miterlimit="10"/><path id="snowman__Mouth" stroke="#364d6e" stroke-linecap="round" stroke-width="2" d="m59.5 51.5.845.375a9 9 0 0 0 7.31 0l.845-.375"/><path id="snowman__Nose" fill="url(#snowman__paint4_linear_2045_50276)" stroke="#f97316" d="M63.737 45.545a.73.73 0 0 1 .494-.004c.048.017.095.048.123.195.03.165.01.394-.05.634-.043.174-.064.35-.08.503-.016.166-.024.292-.041.427-.035.265-.09.394-.167.47a.6.6 0 0 1-.382.163l-6.52.563c-.38.033-.555-.16-.6-.299a.26.26 0 0 1 .012-.202c.029-.056.1-.14.27-.205l6.92-2.237z"/><g id="snowman__Eyes"><circle id="snowman__Left Eye" cx="59" cy="42" r="2" fill="#364d6e"/><circle id="snowman__Right Eye" cx="69" cy="42" r="2" fill="#364d6e"/></g><g id="snowman__Hat"><rect id="snowman__Hat Top" width="13" height="14" x="57.5" y="22.5" fill="url(#snowman__paint5_linear_2045_50276)" stroke="#202939" rx="1.5"/><rect id="snowman__Hat Base" width="25" height="5" x="51.5" y="31.5" fill="url(#snowman__paint6_linear_2045_50276)" stroke="#202939" rx="1.5"/><line id="snowman__Hat Line" x1="57" x2="71" y1="31.5" y2="31.5" stroke="#dc2626"/></g><g id="snowman__Shawl"><rect id="snowman__Shawl Hanging" width="5" height="8" x="68.5" y="58.5" fill="url(#snowman__paint7_linear_2045_50276)" stroke="#dc2626" rx="1.5"/><path id="snowman__Shawl Base" fill="url(#snowman__paint8_linear_2045_50276)" stroke="#dc2626" d="M74.918 55.688a.5.5 0 0 1 .582.493v2.972a.5.5 0 0 1-.418.494l-4.26.71a41.5 41.5 0 0 1-13.644 0l-4.26-.71a.5.5 0 0 1-.418-.494v-2.972a.5.5 0 0 1 .582-.493l3.93.655c4.627.77 9.35.77 13.975 0z"/></g></g></g><defs><linearGradient id="snowman__paint0_linear_2045_50276" x1="64" x2="64" y1="55" y2="97" gradientUnits="userSpaceOnUse"><stop stop-color="#f3f7fe"/><stop offset="1" stop-color="#e6effc"/></linearGradient><linearGradient id="snowman__paint1_linear_2045_50276" x1="83.5" x2="83.5" y1="64" y2="73" gradientUnits="userSpaceOnUse"><stop stop-color="#f3f7fe"/><stop offset="1" stop-color="#e6effc"/></linearGradient><linearGradient id="snowman__paint2_linear_2045_50276" x1="44.5" x2="44.5" y1="64" y2="73" gradientUnits="userSpaceOnUse"><stop stop-color="#f3f7fe"/><stop offset="1" stop-color="#e6effc"/></linearGradient><linearGradient id="snowman__paint3_linear_2045_50276" x1="64" x2="64" y1="31" y2="61" gradientUnits="userSpaceOnUse"><stop stop-color="#f3f7fe"/><stop offset="1" stop-color="#e6effc"/></linearGradient><linearGradient id="snowman__paint4_linear_2045_50276" x1="60.308" x2="60.308" y1="45.342" y2="47.974" gradientUnits="userSpaceOnUse"><stop stop-color="#fb923c"/><stop offset="1" stop-color="#f97316"/></linearGradient><linearGradient id="snowman__paint5_linear_2045_50276" x1="64" x2="64" y1="23.125" y2="33.25" gradientUnits="userSpaceOnUse"><stop stop-color="#364d6e"/><stop offset="1" stop-color="#202939"/></linearGradient><linearGradient id="snowman__paint6_linear_2045_50276" x1="64" x2="64" y1="31.45" y2="35.5" gradientUnits="userSpaceOnUse"><stop stop-color="#364d6e"/><stop offset="1" stop-color="#202939"/></linearGradient><linearGradient id="snowman__paint7_linear_2045_50276" x1="71" x2="71" y1="58.77" y2="64.691" gradientUnits="userSpaceOnUse"><stop stop-color="#ef4444"/><stop offset="1" stop-color="#dc2626"/></linearGradient><linearGradient id="snowman__paint8_linear_2045_50276" x1="64" x2="64" y1="54.513" y2="58.461" gradientUnits="userSpaceOnUse"><stop stop-color="#ef4444"/><stop offset="1" stop-color="#dc2626"/></linearGradient><clipPath id="snowman__clip0_2045_50276"><rect width="128" height="128" fill="#fff"/></clipPath></defs></svg>